<mxfile host="app.diagrams.net" modified="2023-05-18T08:21:19.956Z" agent="Mozilla/5.0 (Windows NT 10.0; Win64; x64) AppleWebKit/537.36 (KHTML, like Gecko) Chrome/113.0.0.0 Safari/537.36" version="21.3.2" etag="VXCYJe9W6TkwmssSnoAY" type="github">
  <diagram name="페이지-1" id="782zuh_IN_m6O7-aDKNC">
    <mxGraphModel>
      <root>
        <mxCell id="0" />
        <mxCell id="1" parent="0" />
      </root>
    </mxGraphModel>
  </diagram>
</mxfile>
